<svg width="572" height="147" viewBox="0 0 572 147" fill="none" xmlns="http://www.w3.org/2000/svg">
<path d="M198.317 18.6667C203.238 15.117 215.383 16.9167 215.383 25.0833C214.206 45.5 217.148 67.6667 215.383 88.0833C210.086 145.25 122.403 145.833 114.753 90.4167C109.251 50.5638 112.658 32.8404 112.658 26.9575C114.423 11.7908 132.407 14.5833 134.761 23.9167C136.527 43.75 132.996 65.3333 134.761 85.1667C136.527 105 144.765 109.667 157.123 111.417C210.086 118.417 191.844 59.5 195.374 28C195.374 18.6667 195.905 19.8085 196.81 19.25L198.317 18.6667Z" fill="#FB7185" style="fill:#FB7185;fill:color(display-p3 0.9843 0.4431 0.5216);fill-opacity:1;"/>
<path d="M284.823 105C284.823 105 288.354 106.75 288.942 106.167L323.663 22.1667C329.547 11.6667 343.671 16.9167 343.082 28.5833C336.021 44.9167 329.547 61.8333 323.074 78.1667C316.601 94.5 308.362 117.833 302.477 124.25C296.593 130.667 277.173 131.833 271.877 120.75C261.872 92.75 243.041 61.8333 234.803 33.25C231 19.1275 231.272 19.8333 238.922 17.5C246.572 15.1667 248.337 16.9167 251.868 22.1667L285.412 105H284.823Z" fill="#FB7185" style="fill:#FB7185;fill:color(display-p3 0.9843 0.4431 0.5216);fill-opacity:1;"/>
<path d="M397.811 16.9167C411.346 15.1667 427.823 16.9167 441.947 16.9167C447.831 19.8334 449.597 30.3334 443.712 33.8334C437.827 37.3334 413.7 33.8334 404.872 35.5834C362.502 40.25 359.56 106.75 407.815 110.833C433.19 112.596 437.381 110.833 439.593 110.833C449.597 112 449.597 127.167 441.947 128.917C434.296 130.667 408.403 129.5 401.93 128.917C336.021 123.083 337.198 24.5 397.811 16.3334V16.9167Z" fill="#FB7185" style="fill:#FB7185;fill:color(display-p3 0.9843 0.4431 0.5216);fill-opacity:1;"/>
<path d="M466.663 35.5833C460.189 34.4167 459.012 18.0833 466.663 17.5C492.556 18.0833 521.391 15.1667 547.284 17.5C557.333 18.4056 559.053 22.1667 556.111 30.9167C554.346 36.1666 551.403 36.1666 551.403 36.1666H519.037V122.5C517.272 133.583 500.794 133.583 499.029 122.5V35.5833C489.025 34.4167 476.078 37.3333 466.663 35.5833Z" fill="#FB7185" style="fill:#FB7185;fill:color(display-p3 0.9843 0.4431 0.5216);fill-opacity:1;"/>
<path d="M41.7819 103.25C45.9012 107.333 55.3169 110.25 61.2016 110.833C71.2058 112 91.8025 109.083 99.4527 110.833C107.103 112.583 107.103 126.583 97.6872 128.917C84.1523 128.917 69.4403 130.083 55.9054 128.917C-1.17695 125.417 18.8313 61.8334 15.3004 23.3334C18.8313 14 32.9547 14.5834 35.3086 25.0834C37.6626 45.5 33.5432 68.8334 35.3086 89.25C36.6667 100.606 38.2381 100.606 40.3333 102.692L41.7819 103.25Z" fill="#FB7185" style="fill:#FB7185;fill:color(display-p3 0.9843 0.4431 0.5216);fill-opacity:1;"/>
<path d="M396.634 63C403.107 61.8333 426.646 61.8333 431.942 64.1666C437.239 66.5 437.827 81.0833 429.589 82.25C421.35 83.4166 396.634 82.8333 393.103 81.6666C384.276 78.75 385.453 64.75 397.222 62.4166L396.634 63Z" fill="#FB7185" style="fill:#FB7185;fill:color(display-p3 0.9843 0.4431 0.5216);fill-opacity:1;"/>
</svg>
